{"title":"Letters to God DVDSCR XviD-DoNE","uid":5674360,"size":1479348885,"categoryP":"video","categoryS":"movies","magnet":"?xt=urn:btih:dad104bc75e40ba1e3d890cef86a426311c03197&amp;dn=Letters+to+God+DVDSCR+XviD-DoNE&amp;tr=udp%3A%2F%2Ftracker.openbittorrent.com%3A80&amp;tr=udp%3A%2F%2Fopen.demonii.com%3A1337&amp;tr=udp%3A%2F%2Ftracker.coppersurfer.tk%3A6969&amp;tr=udp%3A%2F%2Fexodus.desync.com%3A6969","seeders":1,"leechers":1,"uploader":"neon","files":104,"time":1278467285,"description":"Letters to God DVDSCR XviD-DoNE\n &lt;a href=&quot;\nhttp://img143.imageshack.us/slideshow/webplayer.php?id=god1.png&quot; rel=&quot;nofollow&quot; target=&quot;_NEW&quot;&gt;\nhttp://img143.imageshack.us/slideshow/webplayer.php?id=god1.png&lt;/a&gt;\n\nA young boy fighting cancer writes letters to God, touching lives in his neighborhood and community and inspiring hope among everyone he comes in contact. An unsuspecting substitute postman, with a troubled life of his own, becomes entangled in the boy's journey and his family by reading the letters. They inspire him to seek a better life for himself and his own son he's lost through his alcohol addiction.\n &lt;a href=&quot;\nhttp://www.imdb.com/title/tt1462054/&quot; rel=&quot;nofollow&quot; target=&quot;_NEW&quot;&gt;\nhttp://www.imdb.com/title/tt1462054/&lt;/a&gt;\n\n\nGenre:Drama | Family\n\n\nVideo\nID : 0\nFormat : MPEG-4 Visual\nFormat profile : Advanced Simple@L5\nFormat settings, BVOP : Yes\nFormat settings, QPel : No\nFormat settings, GMC : No warppoints\nFormat settings, Matrix : Default (MPEG)\nMuxing mode : Packed bitstream\nCodec ID : XVID\nCodec ID/Hint : XviD\nBit rate : 1 490 Kbps\nWidth : 640 pixels\nHeight : 352 pixels\nDisplay aspect ratio : 16:9\nFrame rate : 23.976 fps\nResolution : 8 bits\nColorimetry : 4:2:0\nScan type : Progressive\nBits/(Pixel*Frame) : 0.276\nStream size : 596 MiB (85%)\nWriting library : XviD 1.2.1 (UTC 2008-12-04)\n\nAudio\nID : 1\nFormat : AC-3\nFormat/Info : Audio Coding 3\nCodec ID : 2000\nBit rate mode : Constant\nBit rate : 256 Kbps\nChannel(s) : 2 channels\nChannel positions : L R\nSampling rate : 48.0 KHz\nStream size : 102 MiB (15%)\nAlignment : Aligned on interleaves\nInterleave, duration : 64 ms (1.53 video frames)\nInterleave, preload duration : 192 ms\nTitle : cutted T01 2_0ch 256Kbps DELAY -402ms","torrent":{"xt":"urn:btih:dad104bc75e40ba1e3d890cef86a426311c03197","amp;dn":"Letters+to+God+DVDSCR+XviD-DoNE","amp;tr":["udp%3A%2F%2Ftracker.openbittorrent.com%3A80","udp%3A%2F%2Fopen.demonii.com%3A1337","udp%3A%2F%2Ftracker.coppersurfer.tk%3A6969","udp%3A%2F%2Fexodus.desync.com%3A6969"],"infoHash":"dad104bc75e40ba1e3d890cef86a426311c03197","infoHashBuffer":{"type":"Buffer","data":[218,209,4,188,117,228,11,161,227,216,144,206,248,106,66,99,17,192,49,151]},"announce":[],"urlList":[]}}